<?xml version="1.0" encoding="UTF-8" standalone="no"?>
<svg
   xmlns:dc="http://purl.org/dc/elements/1.1/"
   xmlns:cc="http://creativecommons.org/ns#"
   xmlns:rdf="http://www.w3.org/1999/02/22-rdf-syntax-ns#"
   xmlns:svg="http://www.w3.org/2000/svg"
   xmlns="http://www.w3.org/2000/svg"
   xmlns:sodipodi="http://sodipodi.sourceforge.net/DTD/sodipodi-0.dtd"
   xmlns:inkscape="http://www.inkscape.org/namespaces/inkscape"
   version="1.1"
   id="svg130"
   width="256"
   height="256"
   viewBox="0 0 256 256"
   sodipodi:docname="scaleimp.svg"
   inkscape:version="1.0.2 (e86c870879, 2021-01-15)"
   inkscape:export-filename="/home/blockhead/build/ScaleImpTcl/scaleimp24.png"
   inkscape:export-xdpi="9"
   inkscape:export-ydpi="9">
  <metadata
     id="metadata136">
    <rdf:RDF>
      <cc:Work
         rdf:about="">
        <dc:format>image/svg+xml</dc:format>
        <dc:type
           rdf:resource="http://purl.org/dc/dcmitype/StillImage" />
        <dc:title></dc:title>
      </cc:Work>
    </rdf:RDF>
  </metadata>
  <defs
     id="defs134" />
  <sodipodi:namedview
     pagecolor="#ffffff"
     bordercolor="#666666"
     borderopacity="1"
     objecttolerance="10"
     gridtolerance="10"
     guidetolerance="10"
     inkscape:pageopacity="0"
     inkscape:pageshadow="2"
     inkscape:window-width="1920"
     inkscape:window-height="1013"
     id="namedview132"
     showgrid="false"
     inkscape:zoom="1"
     inkscape:cx="89.317539"
     inkscape:cy="158.22917"
     inkscape:window-x="1920"
     inkscape:window-y="0"
     inkscape:window-maximized="1"
     inkscape:current-layer="g138" />
  <g
     inkscape:groupmode="layer"
     inkscape:label="Image"
     id="g138">
    <path
       style="fill:#000000;fill-opacity:1;stroke:none;stroke-width:2.97949px;stroke-linecap:butt;stroke-linejoin:miter;stroke-opacity:1"
       d="m 260.54074,246.66492 c -4.70515,-5.11819 -37.06177,-41.36506 -38.78592,-43.93691 -1.72417,-2.57187 -12.11463,-23.58235 -12.11463,-23.58235 l -16.81765,-22.04064 5.57575,-22.61133 6.42162,-8.00511 19.14573,7.29933 17.02346,7.43649 -14.46709,-38.28304 -6.20476,-7.53024 7.91079,-27.276647 30.5792,-3.398433 -0.99738,-48.349509 -35.30426,7.865652 12.80734,-27.5119802 -51.29659,3.03295012 -6.93375,14.29510008 c 0,0 -13.77919,9.389824 -16.56021,9.761318 -2.78101,0.371499 -15.47959,-3.433749 -15.47959,-3.433749 0,0 -6.00362,-0.999184 -6.00362,-3.309729 0,-2.310544 -5.09527,-19.2353584 -5.09527,-19.2353584 L 94.101092,-3.681989 89.053983,23.620849 82.439305,33.508019 65.093006,36.487352 31.17186,30.007037 -5.2313218,22.331441 -1.3514907,81.566265 c 0,0 9.4197465,4.651097 16.9895977,5.410013 8.429229,0.845073 6.223658,4.427279 12.6766,5.511583 7.229462,1.214784 16.870443,3.551736 16.870443,3.551736 l -4.353573,4.852713 -41.25391145,12.21545 -0.0992377,142.88007 154.58474215,0.88026 8.17597,-8.47156 9.325,-21.89349 5.51611,-8.55788 c 0,0 5.84989,8.81086 8.36163,11.32261 2.51175,2.51174 9.03994,4.76108 11.69787,7.52463 2.65795,2.76356 14.94699,10.22725 14.94699,10.22725 l 5.97549,11.24923 39.01863,-1.16296 z"
       id="path2880"
       sodipodi:nodetypes="cscccccccccccccccscsccccccccssccccccccsscccc" />
    <path
       style="fill:#6ce000;fill-opacity:1;stroke:none;stroke-width:2.97949px;stroke-linecap:butt;stroke-linejoin:miter;stroke-opacity:1"
       d="m 46.058081,224.22125 c 10.01645,-0.69324 9.779434,-1.41007 16.245435,-4.51458 3.95885,-1.90072 10.596676,-6.61033 10.54472,-11.22384 -0.07207,-6.40445 -5.129316,-13.75148 -11.273593,-15.55978 -8.948304,-2.63354 -18.502132,-0.73103 -26.449477,-4.86738 -2.888855,-1.50355 -7.470358,-3.72755 -9.058367,-6.57087 -3.960906,-7.09197 -2.351384,-17.42955 1.173592,-24.74797 3.684438,-7.64951 12.295018,-12.13634 20.390026,-14.69777 9.885475,-3.12797 20.521156,-4.73493 29.602973,0.2678 3.939281,2.16997 7.124588,6.32993 6.554828,10.7911 -0.39621,3.10217 -4.593161,3.77956 -7.573841,4.72614 -8.710786,2.76632 -15.966352,-4.74031 -24.807067,-2.42261 -3.546816,0.92983 -6.191799,3.62822 -8.123821,6.74459 -2.024534,3.26557 -3.400105,11.94757 0.319461,12.91052 6.103845,1.58019 9.228317,-0.85628 14.94754,0.70911 7.164216,1.96089 14.623759,4.18839 20.502665,8.72817 5.185113,4.00402 10.229093,12.14381 10.613093,16.67756 0.24669,2.91208 0.29806,17.03019 -5.07926,23.67063 -6.20735,7.66543 -16.894705,10.81073 -26.445076,13.27661 -8.770697,2.26455 -18.314185,3.07011 -27.153143,1.08872 -5.510628,-1.23531 -12.841793,-2.62939 -15.018839,-7.84028 -2.586437,-6.19079 -3.173582,-11.73269 -0.786205,-15.17104 2.533629,-1.99302 9.442197,-3.70679 15.176795,0.0472 8.026849,5.31352 7.125038,6.52383 15.697561,7.97801 z"
       id="path2051"
       sodipodi:nodetypes="cssssssssssssssssssssccc" />
    <path
       style="fill:#ffffff;fill-opacity:1;stroke:none;stroke-width:2.97949px;stroke-linecap:butt;stroke-linejoin:miter;stroke-opacity:1"
       d="m 141.14419,113.20092 8.99194,2.08704 8.17495,1.21716 9.93947,0.70691 8.69941,1.12801 6.90907,-1.60489 4.50458,2.50321 2.19481,3.69922 -4.58233,4.6528 -4.58226,0.79308 -14.07642,-2.39172 -10.64455,-2.11911 -9.43983,-2.45399 -6.09438,-3.99374 z"
       id="path2890"
       sodipodi:nodetypes="ccccccccccccccc" />
    <path
       style="fill:#6ce000;fill-opacity:1;stroke:none;stroke-width:2.97949px;stroke-linecap:butt;stroke-linejoin:miter;stroke-opacity:1"
       d="m 116.13571,220.71974 c 0,0 0.8187,-64.55531 -1.86617,-66.1853 -4.10511,-2.49225 -10.29517,0.97102 -16.271082,-1.66405 -2.04073,-0.89986 -1.91361,-4.29511 -1.5834,-6.50082 0.30591,-2.04336 1.10393,-5.20191 3.16615,-5.32875 21.441562,-1.31874 33.312092,-1.99334 53.614572,0.84896 3.11573,0.43619 4.89841,5.49604 4.04955,8.52551 -0.84808,3.02678 -4.91132,4.15053 -7.88284,5.17561 -5.56673,1.92039 -13.09679,-1.46183 -17.60462,0.0722 -2.98812,5.49603 -1.49327,55.31131 -1.91344,65.34892 l 23.38803,-0.42909 c 3.66256,-0.0672 1.30166,14.1481 -0.29216,14.27669 -1.59379,0.1286 -48.67145,0.3458 -56.809512,-0.10383 -2.50706,-5.38602 -1.44115,-9.09159 0.67164,-12.45606 3.922792,-1.32195 13.495282,-1.58 17.634852,-1.58002 z"
       id="path2878"
       sodipodi:nodetypes="csssssssccssccsc" />
    <path
       style="fill:#ffffff;fill-opacity:1;stroke:none;stroke-width:2.97949px;stroke-linecap:butt;stroke-linejoin:miter;stroke-opacity:1"
       d="m 165.89476,57.431496 c 0,0 -9.24904,-2.496355 -13.49522,-4.640791 -3.72968,-1.883589 -10.62913,-6.733976 -12.54446,-7.248749 -1.91618,-0.515002 -7.46694,-0.650647 -9.21092,-0.843483 -3.15223,-0.348548 -9.24796,-2.235546 -9.24796,-2.235546 l -9.24118,-5.268326 -8.88144,-9.115085 19.13175,0.795486 19.355,2.047688 11.80873,8.705055 8.27869,4.863786 4.54111,4.884539 z"
       id="path2882"
       sodipodi:nodetypes="csssccccccccc" />
    <path
       style="fill:#ffffff;fill-opacity:1;stroke:none;stroke-width:2.97949px;stroke-linecap:butt;stroke-linejoin:miter;stroke-opacity:1"
       d="m 186.30499,51.965605 10.86951,-6.458908 27.84705,-11.806382 15.18223,-3.032699 11.57963,2.63037 -16.0794,7.388894 -12.29167,8.494886 -18.65268,6.493308 -18.40757,-0.624668 z"
       id="path2884"
       sodipodi:nodetypes="cccccccccc" />
    <path
       style="fill:#6ce000;fill-opacity:1;stroke:none;stroke-width:2.97949px;stroke-linecap:butt;stroke-linejoin:miter;stroke-opacity:1"
       d="m 145.22085,85.605767 c -5.77622,-0.461668 -23.02387,-12.195768 -22.39204,-15.328518 0.6318,-3.13275 17.91437,-6.900409 21.37219,-7.105388 3.45782,-0.20499 17.46536,8.583347 17.18192,10.804879 -0.3298,2.58455 -10.38588,12.090697 -16.16207,11.629027 z"
       id="path2886"
       sodipodi:nodetypes="zzzsz" />
    <path
       style="fill:#6ce000;fill-opacity:1;stroke:none;stroke-width:2.97949px;stroke-linecap:butt;stroke-linejoin:miter;stroke-opacity:1"
       d="m 201.11351,64.992574 c 0,0 6.60279,-2.190984 8.14509,-1.343146 2.90503,1.596954 0.5965,7.204576 -1.40799,9.84493 -2.35647,3.103988 -10.70298,4.704827 -10.70298,4.704827 -3.63236,-3.391834 -2.62607,-10.464434 3.96588,-13.206611 z"
       id="path2888"
       sodipodi:nodetypes="ssscs" />
  </g>
</svg>
